#!OML:ASF F:\VICON\USERDATA\INSTALL\rory3\rory3.ASF
:FULLY-SPECIFIED
:DEGREES
1090
root 1.99599 18.9025 -4.3979 -3.9621 -10.7274 1.86672
lowerback 5.85313 1.23495 -3.01067
upperback 1.08201 1.43517 -0.805834
thorax -2.2192 0.732421 0.749018
lowerneck -6.1279 -2.24227 -5.70824
upperneck 23.2724 -3.98214 7.23624
head 8.46122 -1.71362 3.04436
rclavicle -3.3079e-015 1.19271e-015
rhumerus -29.8996 40.8157 -96.2055
rradius 93.8046
rwrist -5.64807
rhand -44.4108 9.80723
rfingers 7.12502
rthumb -17.2166 -19.4501
lclavicle -3.3079e-015 1.19271e-015
lhumerus -33.07 -40.4043 101.013
lradius 107.863
lwrist 7.39881
lhand -28.6839 37.0853
lfingers 7.12502
lthumb -2.04642 67.0552
rfemur 5.31847 19.7369 16.6215
rtibia 11.2842
rfoot -13.0144 -20.2469
rtoes -4.60253
lfemur 0 0 0
ltibia 0
lfoot 0 0
ltoes 0
1091
root 1.99674 18.9013 -4.39771 -3.95449 -10.7427 1.89894
lowerback 5.8085 1.24147 -3.03072
upperback 1.07756 1.44422 -0.809945
thorax -2.19957 0.736881 0.756203
lowerneck -6.1383 -2.25521 -5.73088
upperneck 23.2984 -3.99604 7.22736
head 8.47337 -1.7226 3.04425
rclavicle -1.89467e-014 3.97569e-016
rhumerus -29.9147 40.8978 -96.2228
rradius 93.8492
rwrist -5.93488
rhand -44.5499 9.83477
rfingers 7.12502
rthumb -17.3505 -19.4108
lclavicle -1.89467e-014 3.97569e-016
lhumerus -33.0751 -40.5052 101.157
lradius 107.759
lwrist 7.77438
lhand -29.0901 37.1148
lfingers 7.12502
lthumb -2.43876 67.0806
rfemur 5.29316 19.7278 16.5727
rtibia 11.2938
rfoot -13.3788 -20.2139
rtoes -3.373
lfemur 0 0 0
ltibia 0
lfoot 0 0
ltoes 0
1092
root 1.99675 18.9005 -4.39826 -3.98119 -10.7508 1.92483
lowerback 5.81162 1.24431 -3.05863
upperback 1.09661 1.44675 -0.802378
thorax -2.18264 0.737954 0.779605
lowerneck -6.21303 -2.25354 -5.79426
upperneck 23.3394 -3.98599 7.2401
head 8.502 -1.72026 3.06059
rclavicle -2.88735e-014 -1.39149e-014
rhumerus -29.8773 40.9867 -96.1985
rradius 93.9453
rwrist -6.26261
rhand -44.5277 9.54412
rfingers 7.12502
rthumb -17.3292 -19.7033
lclavicle -2.88735e-014 -1.39149e-014
lhumerus -32.9169 -40.5928 101.208
lradius 107.653
lwrist 8.28992
lhand -29.2577 37.233
lfingers 7.12502
lthumb -2.60058 67.1969
rfemur 5.30805 19.7471 16.5527
rtibia 11.2639
rfoot -12.2192 -20.3796
rtoes -6.50074
lfemur 0 0 0
ltibia 0
lfoot 0 0
ltoes 0
1093
root 1.99651 18.9006 -4.39944 -3.99069 -10.7463 1.92115
lowerback 5.83685 1.24254 -3.05859
upperback 1.0952 1.44377 -0.78511
thorax -2.19852 0.736711 0.797008
lowerneck -6.30359 -2.25532 -5.8331
upperneck 23.4165 -3.97771 7.21736
head 8.54498 -1.71949 3.06088
rclavicle 5.89521e-015 -1.98785e-016
rhumerus -29.8903 41.063 -96.1981
rradius 94.0695
rwrist -6.56599
rhand -44.2988 9.2814
rfingers 7.12502
rthumb -17.1088 -19.9853
lclavicle 5.89521e-015 -1.98785e-016
lhumerus -32.7731 -40.6963 101.269
lradius 107.59
lwrist 8.94717
lhand -29.3803 37.1917
lfingers 7.12502
lthumb -2.71896 67.1541
rfemur 5.35609 19.7947 16.5656
rtibia 11.2127
rfoot -11.9199 -20.4
rtoes -7.43797
lfemur 0 0 0
ltibia 0
lfoot 0 0
ltoes 0
1094
root 1.99634 18.9003 -4.39982 -3.97838 -10.7604 1.86277
lowerback 5.83371 1.23741 -3.00243
upperback 1.08602 1.44114 -0.754203
thorax -2.20555 0.735309 0.79752
lowerneck -6.32507 -2.2535 -5.86711
upperneck 23.4394 -3.96722 7.20372
head 8.55646 -1.71822 3.06328
rclavicle 1.38652e-014 -5.96354e-016
rhumerus -29.9147 41.1619 -96.226
rradius 94.1441
rwrist -6.69074
rhand -44.1277 9.02907
rfingers 7.12502
rthumb -16.9441 -20.2518
lclavicle 1.38652e-014 -5.96354e-016
lhumerus -32.6232 -40.7564 101.296
lradius 107.554
lwrist 9.68986
lhand -29.4292 37.1623
lfingers 7.12502
lthumb -2.76619 67.1241
rfemur 5.3983 19.867 16.6388
rtibia 11.186
rfoot -12.0567 -20.352
rtoes -7.10561
lfemur 0 0 0
ltibia 0
lfoot 0 0
ltoes 0
1095
root 1.99607 18.8987 -4.40073 -4.03253 -10.794 1.83981
lowerback 5.88456 1.2433 -2.98532
upperback 1.10527 1.44884 -0.737175
thorax -2.21441 0.738976 0.804014
lowerneck -6.35622 -2.2606 -5.89246
upperneck 23.4234 -3.97255 7.21068
head 8.55786 -1.7217 3.06902
rclavicle -1.43218e-014 2.78299e-015
rhumerus -29.8709 41.252 -96.2231
rradius 94.1592
rwrist -6.73238
rhand -44.1516 9.15348
rfingers 7.12502
rthumb -16.9672 -20.1254
lclavicle -1.43218e-014 2.78299e-015
lhumerus -32.4511 -40.7331 101.274
lradius 107.496
lwrist 10.2757
lhand -29.3715 37.0172
lfingers 7.12502
lthumb -2.71052 66.9798
rfemur 5.46138 19.8278 16.6799
rtibia 11.175
rfoot -12.0461 -20.2934
rtoes -7.08245
lfemur 0 0 0
ltibia 0
lfoot 0 0
ltoes 0
1096
root 1.99612 18.8976 -4.40483 -4.10022 -10.7759 1.89502
lowerback 5.97218 1.23248 -3.05019
upperback 1.12888 1.42736 -0.735591
thorax -2.23982 0.72872 0.842107
lowerneck -6.42913 -2.25989 -5.93543
upperneck 23.431 -3.96469 7.22264
head 8.57454 -1.71901 3.08087
rclavicle 3.4719e-014 -1.35174e-014
rhumerus -29.8099 41.3456 -96.191
rradius 94.1743
rwrist -6.82557
rhand -44.2188 9.47469
rfingers 7.12502
rthumb -17.0318 -19.7987
lclavicle 3.4719e-014 -1.35174e-014
lhumerus -32.2652 -40.6411 101.221
lradius 107.426
lwrist 10.7063
lhand -29.1623 36.7203
lfingers 7.12502
lthumb -2.50843 66.6853
rfemur 5.49686 19.7665 16.6294
rtibia 11.1903
rfoot -12.0245 -20.2483
rtoes -7.07019
lfemur 0 0 0
ltibia 0
lfoot 0 0
ltoes 0
1097
root 1.99641 18.8982 -4.40756 -4.10993 -10.7422 1.94164
lowerback 5.9572 1.21911 -3.07951
upperback 1.16223 1.40886 -0.742711
thorax -2.19689 0.718826 0.853446
lowerneck -6.50412 -2.25475 -5.97838
upperneck 23.4192 -3.94492 7.21722
head 8.58382 -1.7123 3.08757
rclavicle -8.89561e-015 -3.37934e-015
rhumerus -29.744 41.3709 -96.1372
rradius 94.2467
rwrist -7.02226
rhand -44.126 9.46433
rfingers 7.12502
rthumb -16.9425 -19.8167
lclavicle -8.89561e-015 -3.37934e-015
lhumerus -31.9851 -40.585 101.079
lradius 107.352
lwrist 11.1643
lhand -28.8437 36.5398
lfingers 7.12502
lthumb -2.20075 66.5082
rfemur 5.48285 19.7818 16.5794
rtibia 11.2291
rfoot -12.1047 -20.27
rtoes -6.90324
lfemur 0 0 0
ltibia 0
lfoot 0 0
ltoes 0
1098
root 1.99635 18.8992 -4.40898 -4.13387 -10.7578 1.96725
lowerback 5.93122 1.22982 -3.08406
upperback 1.21124 1.42457 -0.75822
thorax -2.13219 0.725366 0.840009
lowerneck -6.61473 -2.26703 -5.92788
upperneck 23.4153 -3.94371 7.12986
head 8.60068 -1.71324 3.04816
rclavicle 5.73059e-015 -6.95746e-015
rhumerus -29.6305 41.3081 -96.0671
rradius 94.3449
rwrist -7.38214
rhand -43.9322 9.81348
rfingers 7.12502
rthumb -16.756 -19.4835
lclavicle 5.73059e-015 -6.95746e-015
lhumerus -31.7174 -40.5621 100.924
lradius 107.275
lwrist 11.5925
lhand -28.5794 36.2107
lfingers 7.12502
lthumb -1.94546 66.1816
rfemur 5.47997 19.8208 16.5662
rtibia 11.2631
rfoot -12.1263 -20.3075
rtoes -7.03947
lfemur 0 0 0
ltibia 0
lfoot 0 0
ltoes 0
1099
root 1.99614 18.9005 -4.41211 -4.14667 -10.7624 1.91939
lowerback 5.95166 1.22787 -3.033
upperback 1.23392 1.425 -0.750989
thorax -2.1192 0.724918 0.818716
lowerneck -6.74491 -2.29427 -5.85683
upperneck 23.4675 -3.96791 7.03519
head 8.64178 -1.72459 3.00098
rclavicle 4.52608e-014 -2.0276e-014
rhumerus -29.5651 41.2546 -96.0448
rradius 94.4309
rwrist -7.69399
rhand -43.8659 10.2582
rfingers 7.12502
rthumb -16.6921 -19.0442
lclavicle 4.52608e-014 -2.0276e-014
lhumerus -31.5541 -40.5273 100.834
lradius 107.212
lwrist 11.9534
lhand -28.3332 35.5944
lfingers 7.12502
lthumb -1.70769 65.5673
rfemur 5.47535 19.884 16.6468
rtibia 11.2797
rfoot -12.3749 -20.401
rtoes -6.41047
lfemur 0 0 0
ltibia 0
lfoot 0 0
ltoes 0
1100
root 1.99528 18.9018 -4.41596 -4.12736 -10.7183 1.8193
lowerback 5.97944 1.20245 -2.93048
upperback 1.22927 1.39704 -0.725954
thorax -2.13668 0.710716 0.788653
lowerneck -6.81707 -2.3352 -5.88193
upperneck 23.4989 -4.01582 7.01705
head 8.66991 -1.74953 2.99432
rclavicle -2.52519e-014 9.74045e-015
rhumerus -29.6047 41.2062 -96.0672
rradius 94.5583
rwrist -7.92829
rhand -43.8051 10.1175
rfingers 7.12502
rthumb -16.6335 -19.1897
lclavicle -2.52519e-014 9.74045e-015
lhumerus -31.3884 -40.5256 100.731
lradius 107.148
lwrist 12.4082
lhand -28.0369 34.8867
lfingers 7.12502
lthumb -1.42154 64.8617
rfemur 5.49632 19.9048 16.7799
rtibia 11.2506
rfoot -12.9773 -20.4814
rtoes -4.6641
lfemur 0 0 0
ltibia 0
lfoot 0 0
ltoes 0
1101
root 1.99497 18.9022 -4.41928 -4.11221 -10.6857 1.78867
lowerback 6.01251 1.18995 -2.89276
upperback 1.20714 1.38136 -0.713523
thorax -2.17681 0.703377 0.780593
lowerneck -6.82278 -2.36907 -5.94321
upperneck 23.4817 -4.04964 7.00504
head 8.66879 -1.77191 2.99708
rclavicle 1.23091e-014 1.13307e-014
rhumerus -29.6649 41.1044 -96.0624
rradius 94.6965
rwrist -8.23004
rhand -43.4923 10.0813
rfingers 7.12502
rthumb -16.3324 -19.251
lclavicle 1.23091e-014 1.13307e-014
lhumerus -31.2745 -40.5434 100.669
lradius 107.106
lwrist 12.9416
lhand -27.7984 34.3459
lfingers 7.12502
lthumb -1.19118 64.3223
rfemur 5.52426 19.8622 16.8138
rtibia 11.1661
rfoot -13.2664 -20.5014
rtoes -3.70363
lfemur 0 0 0
ltibia 0
lfoot 0 0
ltoes 0
